<?xml version="1.0" standalone="no"?>
<!DOCTYPE svg PUBLIC "-//W3C//DTD SVG 20010904//EN"
 "http://www.w3.org/TR/2001/REC-SVG-20010904/DTD/svg10.dtd">
<svg version="1.0" xmlns="http://www.w3.org/2000/svg"
 width="700.000000pt" height="700.000000pt" viewBox="0 0 700.000000 700.000000"
 preserveAspectRatio="xMidYMid meet">
<metadata>
Created by potrace 1.11, written by Peter Selinger 2001-2013
</metadata>
<g transform="translate(0.000000,700.000000) scale(0.100000,-0.100000)"
fill="#000000" stroke="none">
<path d="M3397 6994 c-1 -1 -54 -4 -117 -8 -63 -3 -126 -8 -140 -10 -14 -3
-52 -7 -86 -10 -189 -18 -592 -115 -749 -181 -16 -6 -74 -29 -127 -50 -123
-48 -332 -152 -468 -233 -650 -389 -1171 -996 -1445 -1682 -21 -52 -43 -108
-50 -125 -33 -77 -121 -390 -139 -495 -3 -19 -8 -46 -11 -60 -8 -39 -24 -140
-30 -195 -4 -27 -8 -61 -11 -75 -7 -47 -18 -255 -17 -365 0 -118 11 -357 18
-378 2 -6 6 -40 10 -74 3 -35 7 -68 10 -75 2 -7 6 -31 9 -53 26 -208 143 -603
244 -825 33 -73 128 -267 142 -290 5 -8 35 -58 67 -110 216 -359 500 -681 828
-940 521 -413 1193 -682 1843 -738 182 -15 613 -8 757 13 51 8 219 35 240 39
191 39 478 122 590 171 17 7 84 37 150 65 129 56 288 138 383 197 61 38 227
147 232 152 3 4 40 32 83 64 166 124 408 352 543 511 137 163 286 377 394 566
34 61 160 315 160 324 0 4 9 25 19 49 94 210 190 562 226 827 3 25 8 52 10 60
19 75 28 589 12 765 -50 567 -255 1140 -579 1624 -39 57 -74 109 -79 115 -5 6
-30 38 -55 71 -202 267 -483 534 -779 740 -385 269 -884 478 -1335 559 -122
22 -129 23 -206 31 -38 4 -78 9 -89 11 -50 9 -449 25 -458 18z m1095 -1786 l3
-621 668 0 667 0 0 -412 0 -411 -667 0 -668 0 -3 -1222 -2 -1223 -903 4 c-496
2 -911 6 -922 9 -11 3 -42 9 -70 12 -79 11 -243 52 -325 82 -493 177 -819 539
-944 1045 -14 57 -28 127 -32 154 -3 28 -10 70 -14 95 -9 48 -6 443 3 500 4
19 11 67 17 105 37 229 134 476 261 660 194 281 519 486 884 559 188 37 243
41 560 41 l270 0 31 -92 c18 -51 34 -103 37 -115 3 -13 17 -68 32 -123 36
-138 73 -309 88 -414 l13 -88 -311 0 c-383 0 -442 -6 -587 -60 -212 -78 -347
-242 -405 -491 -18 -80 -25 -346 -10 -442 21 -145 92 -294 187 -390 77 -80
157 -130 261 -164 128 -43 199 -49 622 -50 l397 -1 0 1838 0 1837 430 0 430 0
2 -622z"/>
</g>
</svg>
